<svg width="1440" height="880" viewBox="0 0 1440 880" fill="none" xmlns="http://www.w3.org/2000/svg">
<g clip-path="url(#clip0)">
<g clip-path="url(#clip1)">
<path d="M317 631.396L925.626 858H979.608L1104 523.259L447.947 279L317 631.396Z" fill="#3F51B4"/>
<path d="M2060 826.124L1358.94 650.795C1358.94 650.795 968.821 527.488 829.379 818.023C689.937 1108.56 681.308 1271.17 681.308 1271.17L1021.88 1367.01C1021.88 1367.01 1063.51 1140.04 1124.99 1072.86C1186.48 1005.69 1352.84 1050.4 1352.84 1050.4L1962.36 1209.59L2060 826.124Z" fill="#D7527E"/>
<path d="M522.227 590.406L-265.987 740.774L-197.69 1098.76L590.525 948.39L522.227 590.406Z" fill="#00A9B1"/>
</g>
</g>
<defs>
<clipPath id="clip0">
<rect width="1440" height="880" fill="white"/>
</clipPath>
<clipPath id="clip1">
<rect x="-266" y="-268" width="2326" height="1635" fill="white"/>
</clipPath>
</defs>
</svg>
