<svg width="477" height="504" viewBox="0 0 477 504" fill="none" xmlns="http://www.w3.org/2000/svg">
<g clip-path="url(#clip0)">
<path opacity="0.15" d="M366.34 153.54C371.03 138.91 373.79 123.71 374.23 108.35C375.67 57.85 359.24 -26.68 224.04 10.98C35.97 63.37 -4.15004 175.49 2.88996 291.6C8.85996 390.13 111.26 507.49 231.25 503.51C370.92 498.88 496.7 339.82 408.93 287.5C343.8 248.66 357.83 180.08 366.34 153.54Z" fill="#3771C4"/>
<path d="M205.22 195.01C205.22 195.01 105.56 199.59 75.6 128.3L230.95 101.87L234.7 94.1299L55.93 86.1099C55.93 86.1099 -4.96998 81.2799 12.96 140.78C28.96 193.9 62.27 227.72 60.09 299.88L205.22 195.01Z" fill="#00AAB2"/>
<path d="M264.78 88.1899L427.78 32.8599C427.78 32.8599 474.37 19.9499 476.31 58.3899C478.26 97.0999 443.45 140.62 418.1 204.04L250.68 196.4C250.68 196.4 351.32 180.67 396.95 82.6699L265 99.7299L264.78 88.1899Z" fill="#00AAB2"/>
<path d="M266.62 104.95C253.39 145.53 249.52 172.29 249.24 191.63L201.61 205.68L190.2 196.32L199 196.16C234.69 185.66 250.67 112.18 250.67 112.18" fill="#FEB9E1"/>
<path d="M190.74 193.98C194.87 193.59 194.67 194.58 198.14 196.86C201.01 198.75 198.57 202.82 202.77 203.76C213.69 206.21 243.92 197.85 249.43 196.68C250.29 196.5 251.17 196.38 252.05 196.32L340.71 190.58C341.77 190.51 342.82 190.35 343.85 190.1C356.6 187.01 439.23 156.84 420.12 199.6C392.16 262.15 347.2 326.32 301.69 393.43C269.64 440.69 237.05 475.82 202.41 475.75C150.61 475.64 81.27 474.16 15.65 464.13C3.01999 462.19 -3.84001 448.3 2.25999 437.09C18.91 406.49 47.13 352.47 55.01 323.81C63.87 291.6 63.56 259.81 62.85 245.92C62.6 241.03 64.32 236.24 67.62 232.61C80.43 218.55 113.83 185.19 137.75 190.91C153.14 194.59 179.25 195.06 190.74 193.98Z" fill="#00AAB2"/>
<path opacity="0.1" d="M420.12 199.6C424.97 192.18 372.31 295.82 301.69 393.43C268.95 438.68 237.05 475.82 202.41 475.75C150.61 475.64 81.27 474.16 15.65 464.13C15.64 464.12 211.49 518.92 420.12 199.6Z" fill="black"/>
<path opacity="0.15" d="M246.01 129.11C246.01 129.11 251.05 128.96 261.19 122.18C261.19 122.18 257.82 133.2 243.85 135.65L246.01 129.11Z" fill="black"/>
<path d="M221.69 81.2901C212.13 100.29 222.56 125.3 230.32 129.21C237.8 132.97 263.62 128.08 273.83 107.8C284.38 86.8201 280.5 65.4101 266.07 58.1501C251.64 50.8801 233.01 58.7801 221.69 81.2901Z" fill="#FEB9E1"/>
<path d="M245.93 91.8601L247.87 92.7701L244.45 100.08C244.45 100.08 242.9 102.64 240.4 101.67C237.9 100.7 237.41 99.8701 237.14 98.9301C236.88 97.9901 237.09 97.7201 237.83 95.8001L239.47 96.5701C239.47 96.5701 238.32 98.5601 240.33 99.4301C242.13 100.21 242.79 98.6301 243.04 98.0801L245.93 91.8601Z" fill="#E01EAA"/>
<path d="M276.76 61.34C276.76 61.34 262.41 42.04 240.99 47.15C220.18 52.12 216.54 77.19 216.54 77.19C216.54 77.19 236.12 77.49 241.94 71.54C241.94 71.54 239.98 75.81 234.56 78.59C234.56 78.59 254.01 87.24 260.32 77.61C260.32 77.61 259.81 82.13 255.89 84.18C255.89 84.18 272.73 88.72 275.86 81.6C275.86 81.6 273.03 87.06 277.05 100.13C277.05 100.13 298.03 68.4 276.76 61.34Z" fill="#0D3880"/>
<path opacity="0.15" d="M275.9 64.5801C275.9 64.5801 271.08 52.9901 258.1 52.1701C245.12 51.3401 235.96 59.0301 235.96 59.0301C235.96 59.0301 255.58 54.3101 261.72 58.0001C261.72 58.0001 254.94 60.0701 247.33 60.4901C247.33 60.4901 264.73 68.0301 269.09 63.7201C269.09 63.7201 267.01 67.0201 263.02 70.0301C263.02 70.0301 273.82 70.5301 274.25 67.0301C274.25 67.0301 278.56 70.7601 278.67 75.3201C278.67 75.3101 282.9 67.3801 275.9 64.5801Z" fill="black"/>
<path d="M239.98 120.83C239.98 120.83 253.46 117.32 256.68 112.64" stroke="#E01EAA" stroke-width="1.5544" stroke-miterlimit="10" stroke-linecap="round" stroke-linejoin="round"/>
<path d="M254.71 112.3C254.71 112.3 257.09 111.46 257.7 114.05" stroke="#E01EAA" stroke-width="1.5544" stroke-miterlimit="10" stroke-linecap="round" stroke-linejoin="round"/>
<path d="M213.25 199.6L191.56 216.76L193.42 194.04L204.56 193.95C204.55 193.94 208.05 197.96 213.25 199.6Z" fill="#192182"/>
<path d="M219.75 216.61L215.76 199.61C215.76 199.61 233.92 195.82 249.25 190.72L257.79 195.1C257.8 195.1 234.1 218.79 219.75 216.61Z" fill="#131FAA"/>
<path d="M219.75 216.61L215.76 199.61C215.76 199.61 233.92 195.82 249.25 190.72L257.79 195.1C257.8 195.1 234.1 218.79 219.75 216.61Z" fill="#192182"/>
<path d="M205.26 205.83L207.08 219.31C207.08 219.31 154.37 312.4 116.97 351.19L127.11 388.92L165.5 366.4C165.5 366.4 220.26 256.43 213.6 219.67L218.27 210.75L215.67 199.67L213.24 199.59L205.26 205.83Z" fill="#FFF931"/>
<path d="M266.62 240.5L261.56 254.07L321.31 257.18L327.11 240.5H266.62Z" fill="#192182"/>
<path opacity="0.1" d="M261.56 254.07L249.22 288.53L266.62 315.65L305.64 296.48L321.31 257.18L261.56 254.07Z" fill="black"/>
<path d="M47.11 83.4499C46.94 82.2799 47.74 81.1999 48.91 81.0299C54.37 80.2099 68.49 76.8999 68.1 64.5899C67.8 55.0599 71.16 54.1599 73.73 54.8299C75.47 55.2799 76.9 56.5299 77.69 58.1499C79.03 60.8999 80.69 66.4199 77.85 73.8099L95.31 71.2699C97.78 70.9099 99.95 72.9299 99.77 75.4199L97.96 100.3C97.83 102.13 96.44 103.62 94.63 103.88L53.8 109.81C52.26 110.03 50.84 108.97 50.61 107.43L47.11 83.4499Z" fill="#6CDEEA"/>
<path d="M62.27 108.56L53.78 109.74C52.24 109.96 50.82 108.9 50.59 107.36L47.11 83.3898C46.94 82.2198 47.74 81.1398 48.91 80.9698C50.27 80.7698 55.83 79.1498 57.91 78.5298" fill="#2F41C9"/>
<path d="M428.32 423.83C428.36 422.22 427.09 420.88 425.48 420.84C417.94 420.64 398.22 418.49 396.7 401.71C395.53 388.72 390.81 388.07 387.44 389.4C385.15 390.31 383.42 392.23 382.62 394.56C381.26 398.51 379.92 406.28 385.01 415.83L360.89 415.29C357.48 415.21 354.87 418.31 355.53 421.66L362.12 455.12C362.6 457.58 364.73 459.37 367.24 459.43L423.64 460.7C425.76 460.75 427.52 459.07 427.57 456.94L428.32 423.83Z" fill="#6CDEEA"/>
<path d="M411.93 460.44L423.65 460.63C425.77 460.68 427.53 459 427.58 456.87L428.32 423.76C428.36 422.15 427.09 420.81 425.48 420.77C423.59 420.72 415.79 419.44 412.86 418.95" fill="#2F41C9"/>
<path d="M355.42 15.6299C355.51 14.9999 355.08 14.4099 354.45 14.3099C351.49 13.8699 343.82 12.0699 344.03 5.38993C344.2 0.219931 342.37 -0.270069 340.98 0.0899311C340.04 0.339931 339.26 1.00993 338.83 1.88993C338.1 3.37993 337.2 6.37993 338.74 10.3899L329.26 9.00993C327.92 8.81993 326.74 9.90993 326.84 11.2599L327.82 24.7599C327.89 25.7499 328.64 26.5599 329.63 26.6999L351.79 29.9199C352.62 30.0399 353.4 29.4599 353.52 28.6299L355.42 15.6299Z" fill="#6CDEEA"/>
<path d="M347.2 29.26L351.81 29.9C352.64 30.02 353.42 29.44 353.54 28.61L355.43 15.6C355.52 14.97 355.09 14.38 354.46 14.28C353.72 14.17 350.71 13.29 349.57 12.96" fill="#2F41C9"/>
</g>
<defs>
<clipPath id="clip0">
<rect width="476.38" height="503.6" fill="white"/>
</clipPath>
</defs>
</svg>
