<svg width="609" height="519" viewBox="0 0 609 519" fill="none" xmlns="http://www.w3.org/2000/svg">
<g clip-path="url(#clip0)">
<path opacity="0.2" d="M536.46 439.15C589.46 405.52 614.12 341.89 607.65 292.27C603.88 263.31 586.5 215.59 561.61 188.43C491.28 111.67 437.57 108.49 387.39 120.84C347.46 130.67 398.11 29.8099 282.32 5.92989C133.54 -24.7501 5.49999 68.7799 0.229994 166.84C-4.56001 255.99 68.38 259.11 47.28 295.55C-3.27001 382.87 265.08 611.33 536.46 439.15Z" fill="#3771C4"/>
<path d="M552.68 343.14H442C437.72 343.14 434.21 339.64 434.21 335.35V332.16C434.21 327.88 437.71 324.37 442 324.37H552.68C556.96 324.37 560.47 327.87 560.47 332.16V335.35C560.47 339.63 556.97 343.14 552.68 343.14Z" fill="white"/>
<path d="M485.47 378.11H427.42C423.06 378.11 419.5 374.55 419.5 370.19V366.94C419.5 362.58 423.06 359.02 427.42 359.02H485.47C489.83 359.02 493.39 362.58 493.39 366.94V370.19C493.39 374.54 489.82 378.11 485.47 378.11Z" fill="white"/>
<path d="M541.56 414.4H445.21C440.88 414.4 437.34 410.86 437.34 406.53V403.3C437.34 398.97 440.88 395.43 445.21 395.43H541.56C545.89 395.43 549.43 398.97 549.43 403.3V406.53C549.43 410.87 545.89 414.4 541.56 414.4Z" fill="white"/>
<path d="M469.63 78.0098C472.32 76.7998 475.62 80.0998 475.89 78.1298C476.23 75.7198 474.92 72.4098 473.52 69.2698C473.52 69.2698 471.68 64.7398 473.08 63.1298C473.08 63.1298 473.9 60.6798 482.29 60.9798C484.08 61.0398 486.46 63.5898 486.85 65.0598C487.85 68.8098 487.7 72.0198 487.47 77.0998C487.26 81.6698 489.96 89.0298 489.96 89.0298L481.75 90.7998" fill="#FEB9E1"/>
<path d="M102.45 64.64C100.69 64.7 98.35 67.2 97.97 68.65C96.99 72.34 97.13 75.48 97.36 80.47C97.56 84.96 95.45 90.58 95.45 90.58L102.97 93.92C102.97 93.92 102.63 90.96 106.46 88.07C110.29 85.18 118.7 83.06 114.89 81.35C112.25 80.16 109.01 83.4 108.74 81.47C108.41 79.1 109.7 75.85 111.07 72.78C111.07 72.78 112.88 68.34 111.5 66.75C111.49 66.74 110.68 64.34 102.45 64.64Z" fill="#FEB9E1"/>
<path d="M272.49 250.45C272.49 250.45 199.87 289.12 200.84 313.4C204.83 412.4 232.22 518.64 232.22 518.64C282.89 518.64 347.66 515.94 370.43 514.92C375.22 514.7 392.5 514.77 393.27 509.14C396.48 485.58 396.45 421.35 419.19 377.48C445.97 325.81 409.34 271.77 369.94 255.61C335.18 241.35 272.49 250.45 272.49 250.45Z" fill="#FEC52E"/>
<path d="M488.64 238.06C479.39 255.1 331.49 247.98 331.49 247.98L338.95 302.36L384.54 323.31C397.94 328.76 413.55 390.58 413.55 390.58C434.98 346.11 511.38 339.05 531.38 314.32L488.64 238.06Z" fill="#FEC52E"/>
<path d="M528.36 308.91C567.08 261.06 489.12 86.4099 489.12 86.4099L481.77 90.8199C483.48 110.62 500.74 222.81 490.59 241.53L528.36 308.91Z" fill="#FEB9E1"/>
<path d="M117.4 235.1C133.44 253.97 272.5 250.45 272.5 250.45L230.9 518.64C199.51 524.56 205 397.29 173.58 365.92C146.67 339.05 81.08 340.43 64 296.29L117.4 235.1Z" fill="#FEC52E"/>
<path d="M114.55 238.36C101.43 222.92 100.16 118.21 102.98 93.9198L95.46 90.5798C95.46 90.5798 52.18 253.95 67.14 292.65L114.55 238.36Z" fill="#FEB9E1"/>
<path d="M294.5 167.61C307.29 250.4 271.75 250.08 271.75 250.08C271.75 250.08 272.18 259.22 287.94 261.8C304.29 264.47 331.2 247.97 331.2 247.97C293.24 230.29 315.46 153.3 315.46 153.3L294.5 167.61Z" fill="#FEB9E1"/>
<path opacity="0.15" d="M312.83 164.69L296.04 179.23L296.73 185.44C296.73 185.45 309.83 180.6 312.83 164.69Z" fill="black"/>
<path d="M258.89 133.85C250.44 154.58 263.8 180.08 272.41 183.59C280.71 186.97 307.74 179.84 316.76 157.72C326.09 134.84 317.02 119.99 301.01 113.47C285.01 106.94 268.91 109.3 258.89 133.85Z" fill="#FEB9E1"/>
<path d="M282.17 141.78L280.02 140.94L276.86 149.07C276.86 149.07 276.01 152.2 278.64 153.42C281.26 154.65 282.28 154.41 283.21 153.92C284.14 153.43 284.2 153.05 285.14 151.04L283.31 150.33C283.31 150.33 282.61 152.71 280.43 151.79C278.47 150.96 279.22 149.28 279.46 148.66L282.17 141.78Z" fill="#E01EAA"/>
<path d="M315.01 139.19L310.97 156.37L315.47 160.55C315.47 160.55 325.91 141.52 328.12 133.25C330.72 123.47 321.56 122.35 321.56 122.35C321.68 118.03 304.97 102.09 285.77 101.37C270.49 100.79 261.25 119.03 260.25 121.26C264.51 121.96 292.31 139.26 315.01 139.19Z" fill="#E60278"/>
<path d="M277.5 166.86C277.5 166.86 271.41 165.38 270.21 167.4C269.01 169.42 269.01 175.97 271.75 176.65C274.49 177.33 277.79 178.23 279.35 178.41C280.91 178.59 283.75 172.37 283.72 170.9C283.71 169.43 280.23 167.31 277.5 166.86Z" stroke="#E01EAA" stroke-width="2.1167" stroke-miterlimit="10" stroke-linecap="round" stroke-linejoin="round"/>
<path d="M271.75 250.08L294.41 344.59L331.2 247.98C331.21 247.97 302.46 259.39 271.75 250.08Z" fill="#4054B2"/>
<path d="M343.56 86.8499L346.52 93.0799L425.68 42.4299L415.33 28.8599L343.56 86.8499Z" fill="#E41816"/>
<path d="M314.7 93.7399L305.09 90.4199L313.96 14.9699L335.96 14.4299L314.7 93.7399Z" fill="#E41816"/>
<path d="M272.93 79.2599L280.81 75.8499L263.46 23.8999L249.44 27.4699L272.93 79.2599Z" fill="#E41816"/>
<path d="M242.95 106.33L249.44 103.23L229.5 66.5L221.42 81.64L242.95 106.33Z" fill="#E41816"/>
<path opacity="0.2" d="M331.21 247.97L364.35 276.53L320.46 300.69L331.21 315.17L294.42 344.59L331.21 247.97Z" fill="black"/>
<path opacity="0.2" d="M271.75 250.08L237.27 268.85L271.75 298.36L250.42 314.5L294.42 344.59L271.75 250.08Z" fill="black"/>
<path d="M285.13 375.44C286.803 375.44 288.16 374.083 288.16 372.41C288.16 370.736 286.803 369.38 285.13 369.38C283.457 369.38 282.1 370.736 282.1 372.41C282.1 374.083 283.457 375.44 285.13 375.44Z" fill="white"/>
<path d="M291.04 432.64C292.713 432.64 294.07 431.283 294.07 429.61C294.07 427.936 292.713 426.58 291.04 426.58C289.367 426.58 288.01 427.936 288.01 429.61C288.01 431.283 289.367 432.64 291.04 432.64Z" fill="white"/>
<path d="M294.42 494.53C296.193 494.53 297.63 493.093 297.63 491.32C297.63 489.547 296.193 488.11 294.42 488.11C292.647 488.11 291.21 489.547 291.21 491.32C291.21 493.093 292.647 494.53 294.42 494.53Z" fill="white"/>
<path d="M348.56 133.54L345.97 123.5L405.03 103.69L411.33 120.78L348.56 133.54Z" fill="#E41816"/>
<g opacity="0.2">
<path opacity="0.2" d="M294.24 347.55C296.26 361.39 297.58 375.26 298.65 389.14C299.77 403.02 300.53 416.91 301.1 430.8C301.65 444.7 302 458.61 302 472.53C302.04 486.45 301.83 500.38 300.92 514.34C298.9 500.5 297.57 486.63 296.5 472.75C295.38 458.87 294.62 444.98 294.06 431.09C293.52 417.19 293.17 403.28 293.17 389.36C293.13 375.44 293.34 361.51 294.24 347.55Z" fill="black"/>
</g>
<path d="M240.49 222.49H147.2C142.92 222.49 139.41 218.99 139.41 214.7V211.51C139.41 207.23 142.91 203.72 147.2 203.72H240.49C244.77 203.72 248.28 207.22 248.28 211.51V214.7C248.28 218.99 244.77 222.49 240.49 222.49Z" fill="white"/>
<path d="M182.52 257.46H134.65C130.29 257.46 126.73 253.9 126.73 249.54V246.29C126.73 241.93 130.29 238.37 134.65 238.37H182.52C186.88 238.37 190.44 241.93 190.44 246.29V249.54C190.44 253.9 186.87 257.46 182.52 257.46Z" fill="white"/>
<path d="M230.89 293.76H149.98C145.65 293.76 142.11 290.22 142.11 285.89V282.66C142.11 278.33 145.65 274.79 149.98 274.79H230.89C235.22 274.79 238.76 278.33 238.76 282.66V285.89C238.76 290.22 235.22 293.76 230.89 293.76Z" fill="white"/>
</g>
<defs>
<clipPath id="clip0">
<rect width="608.66" height="518.83" fill="white"/>
</clipPath>
</defs>
</svg>
