<svg width="1440" height="880" viewBox="0 0 1440 880" fill="none" xmlns="http://www.w3.org/2000/svg">
<g clip-path="url(#clip0)">
<rect width="1440" height="880" fill="#3F51B4"/>
<path d="M-13 806.45L215.405 373.799L-13 252.824V806.45Z" fill="#FFC709"/>
<path d="M1659.47 -225L1358.52 74.9113C1358.52 74.9113 1178.08 233.989 1282.12 392.354C1386.15 550.711 1465.44 604.381 1465.44 604.381L1617.01 461.918C1617.01 461.918 1515.32 372.102 1500.14 320.758C1484.96 269.415 1557.94 199.184 1557.94 199.184L1823 -59.5178L1659.47 -225Z" fill="#00A9B1"/>
<path d="M1255.49 678.599C1255.49 678.599 1525.05 749.513 1480.49 1024.65L1716.88 1080.99C1716.88 1080.99 1825.27 591.474 1314.29 428.728L1255.49 678.599Z" fill="#D8527E"/>
</g>
<defs>
<clipPath id="clip0">
<rect width="1440" height="880" fill="white"/>
</clipPath>
</defs>
</svg>
