<svg width="516" height="490" viewBox="0 0 516 490" fill="none" xmlns="http://www.w3.org/2000/svg">
<g clip-path="url(#clip0)">
<path opacity="0.2" d="M48.21 362.96C2.69 323.78 -12.05 243.9 10.24 180.32C10.24 180.32 138.37 -146.13 288.09 89.2201C373.31 223.19 490.84 146.03 497.88 275.58C499.9 312.78 491.81 349.82 475.03 383.08C451.14 430.42 408.78 499.95 370.51 488.74C321.76 474.46 380.96 398.85 230.77 421.14C145.04 433.87 99.95 407.52 48.21 362.96Z" fill="#00AAB2"/>
<path d="M229.44 150.86C229.44 150.86 143.16 183 149.52 199.82C175.37 268.21 187.83 388.41 187.83 388.41C246.1 388.41 238.88 388.5 323.7 386.58C323.7 386.58 340.8 263.29 336.79 213.78C332.62 162.28 342.91 168.96 308.2 157.01C277.58 146.48 229.44 150.86 229.44 150.86Z" fill="#FEC52E"/>
<path d="M281.69 151.5L277.58 212.54C277.58 212.54 405.55 288.9 413.03 299.59C418.85 307.9 352.65 364.94 339.8 380.98L345.72 387.42C345.72 387.42 464.93 329.44 455.83 286.29C449.04 254.11 393.73 204.61 355.92 171.79C355.92 171.79 347.59 162.69 332.94 159.68L281.69 151.5Z" fill="#4054B2"/>
<path d="M261.79 150.42C253.13 138.65 254.7 92.6301 254.7 92.6301L243.36 103.39C243.38 133.28 237.23 142.42 229.45 150.43" fill="#FEB9E1"/>
<path d="M241.97 44.4201C241.97 44.4201 214.03 57.2701 218.27 90.4801C218.27 90.4801 220.28 100.45 224.31 104.04C224.31 104.04 237.54 110.7 254.88 97.1501C267.08 87.6101 257.04 44.3201 241.97 44.4201Z" fill="#FEB9E1"/>
<path opacity="0.15" d="M243.37 103.74C243.37 103.74 254.16 98.8701 254.88 97.1501C254.88 97.1501 249.22 109.36 243.2 111.25L243.37 103.74Z" fill="black"/>
<path d="M231.16 74.07L229.59 73.46L227.3 79.37C227.3 79.37 226.69 81.64 228.6 82.53C230.51 83.42 231.25 83.25 231.92 82.89C232.59 82.53 232.64 82.26 233.32 80.79L232 80.29C232 80.29 231.49 82.02 229.91 81.36C228.49 80.76 229.03 79.53 229.2 79.09L231.16 74.07Z" fill="#E01EAA"/>
<path d="M214.35 157.02L217.39 242.49C217.39 242.49 141.68 282.29 141.06 291.63C139.78 310.79 161.62 364.26 172.05 381.98L166.44 387.59C166.44 387.59 79.64 311.11 86.04 272.31C90.33 246.27 121.38 205.73 157.36 179.67C167.96 171.99 179.92 166.37 192.56 162.94L214.35 157.02Z" fill="#4054B2"/>
<path d="M169.32 388.89L167.37 387.1L171.4 382.95L174.31 384.96C174.31 384.96 179.58 384.03 184.05 387.49L183.58 390.2C182.27 392.61 185.28 395.14 185.28 395.14L191.04 399.82C191.04 399.82 192.36 400.99 191.49 401.99C190.93 402.63 190.18 402.32 190.18 402.32C190.18 402.32 191.55 403.25 191.04 404.05C190.59 404.75 189.01 404.83 187.98 403.91C187.98 403.91 187.58 404.98 185.92 404.33C184.86 403.91 184.42 403.5 184.42 403.5C184.42 403.5 184.11 404.44 182.28 403.78C180.32 403.08 174.39 400.84 169.32 388.89Z" fill="#FEB9E1"/>
<path d="M342.65 387.91L344.6 386.12L340.57 381.97L337.66 383.98C337.66 383.98 330.82 384.19 328.03 386.49L328.39 389.23C329.7 391.64 326.69 394.17 326.69 394.17L320.93 398.85C320.93 398.85 319.61 400.02 320.48 401.02C321.04 401.66 321.79 401.35 321.79 401.35C321.79 401.35 320.42 402.28 320.93 403.08C321.38 403.78 322.96 403.86 323.99 402.94C323.99 402.94 324.39 404.01 326.05 403.36C327.11 402.94 327.55 402.53 327.55 402.53C327.55 402.53 327.86 403.47 329.69 402.81C331.65 402.1 337.58 399.86 342.65 387.91Z" fill="#FEB9E1"/>
<path d="M245.43 40.9099C240.97 38.8399 234.44 41.4199 231.72 44.4599C229.76 46.6599 230.35 52.8199 230.35 52.8199L245.43 40.9099Z" fill="#E60278"/>
<path d="M236.65 137.82C236.83 135.27 241.45 135.45 244.36 135.85C247.34 136.26 250.36 136.15 253.31 135.59C256.65 134.95 258.34 134.58 258.65 137.17C259.11 140.92 260.68 147.45 262.06 149.11C262.06 149.11 264.28 151.2 260.4 151.67C256.23 152.18 232.05 152.9 229.54 151.23C229.54 151.23 228.22 150.48 228.92 149.65C229.61 148.81 236.24 143.85 236.65 137.82Z" fill="#FEC52E"/>
<path d="M216.36 213.79L229.44 381.14L179.58 374.17C179.58 374.17 166.9 289.63 163.74 246.61L216.36 213.79Z" fill="#4054B2"/>
<path d="M277.66 208.92L273.87 378.7L329.94 362.28C329.94 362.28 355.03 269.44 355.49 245.15L277.66 208.92Z" fill="#4054B2"/>
<path d="M226.18 96.29C226.18 96.29 231.69 97.2 236.36 93.55" stroke="#E01EAA" stroke-width="1.7832" stroke-miterlimit="10" stroke-linecap="round"/>
<path d="M240.41 44.5099C240.41 44.5099 248.23 45.1299 252.53 55.2899C258.5 69.3999 256.39 75.9399 255.6 87.6599C253.75 115.2 271.78 152.65 300.39 142.1C336.18 128.9 350.39 195.29 391.41 203.52C529.86 231.31 600.04 20.2899 341.69 68.8099C316.14 73.6099 286.43 34.4399 275.27 30.1899C266.83 26.9899 246.13 30.3299 240.41 44.5099Z" fill="#E60278"/>
<path opacity="0.15" d="M255.44 96.6599C255.44 96.6599 269.99 130.39 296.99 127.82C324 125.25 344.36 128.49 353.08 149.1C361.8 169.71 450.88 225.16 512.18 142.33C512.18 142.33 501.38 189.38 441.13 203.51C383.6 217 363.18 188.36 352.08 174.7C334.98 153.65 319.02 133.33 301.43 142.12C293.95 145.87 262.7 149.96 255.44 96.6599Z" fill="black"/>
<path opacity="0.15" d="M353.63 259.48L329.56 241.38L320.18 365.14L329.93 362.28L353.63 259.48Z" fill="black"/>
<path opacity="0.15" d="M164.95 272.3L178.06 262.75L193.97 376.18L179.58 374.17L164.95 272.3Z" fill="black"/>
<path d="M111.02 94.4L124.07 43.16C124.78 40.38 128.75 40.43 129.38 43.23L141.02 94.35C141.26 95.39 142.08 96.2 143.13 96.42L187.73 105.61C190.4 106.16 190.71 109.84 188.17 110.83L144.6 128.55C143.79 128.87 143.18 129.55 142.95 130.39L129 179.36C128.3 182 124.59 182.09 123.75 179.49L108.01 130.22C107.76 129.44 107.17 128.81 106.41 128.51L62.17 111.1C59.64 110.1 59.96 106.42 62.62 105.88L108.92 96.42C109.94 96.2 110.76 95.42 111.02 94.4Z" fill="#FDB42B"/>
<path d="M184.96 175.34L189.92 155.87C190.19 154.81 191.7 154.83 191.94 155.9L196.36 175.32C196.45 175.72 196.76 176.02 197.16 176.11L214.11 179.6C215.12 179.81 215.24 181.21 214.28 181.58L197.73 188.31C197.42 188.43 197.19 188.69 197.1 189.01L191.79 207.61C191.52 208.61 190.11 208.65 189.8 207.66L183.82 188.94C183.73 188.64 183.5 188.4 183.21 188.29L166.4 181.67C165.44 181.29 165.56 179.89 166.57 179.69L184.16 176.09C184.55 176.02 184.86 175.73 184.96 175.34Z" fill="#FFA200"/>
<path d="M161.84 14.68L165.43 0.570039C165.63 -0.199961 166.72 -0.179961 166.89 0.590039L170.1 14.67C170.17 14.96 170.39 15.18 170.68 15.24L182.96 17.77C183.69 17.92 183.78 18.94 183.08 19.21L171.08 24.09C170.86 24.18 170.69 24.37 170.63 24.6L166.78 38.08C166.59 38.81 165.56 38.83 165.34 38.12L161 24.55C160.93 24.33 160.77 24.16 160.56 24.08L148.37 19.28C147.67 19.01 147.76 17.99 148.49 17.84L161.24 15.23C161.54 15.17 161.77 14.96 161.84 14.68Z" fill="#FFA200"/>
</g>
<defs>
<clipPath id="clip0">
<rect width="515.45" height="489.94" fill="white"/>
</clipPath>
</defs>
</svg>
