<svg width="136" height="136" viewBox="0 0 136 136" fill="none" xmlns="http://www.w3.org/2000/svg">
<mask id="mask0" mask-type="alpha" maskUnits="userSpaceOnUse" x="0" y="0" width="136" height="136">
<rect width="136" height="136" fill="#C4C4C4"/>
</mask>
<g mask="url(#mask0)">
<path d="M77.2127 99.9959C71.7027 94.0359 73.5127 85.8459 73.5127 85.8459C75.3427 74.3759 80.1227 66.1259 80.1227 66.1259C72.0327 60.8959 66.5627 51.1559 66.5627 51.1559C51.1927 59.1659 53.2727 76.7659 53.2727 76.7659C53.8927 84.4759 58.4627 84.6859 58.4627 84.6859C61.2927 85.3459 66.7827 84.9759 66.7827 84.9759C67.5727 88.3859 67.0627 93.5959 67.0627 93.5959C65.6527 103.076 55.7827 102.036 55.7827 102.036C55.7827 102.036 46.8127 100.586 58.7827 109.856C64.8127 114.516 94.8827 106.636 77.2127 99.9959Z" fill="#F7C1DF"/>
<path d="M59.1527 68.1259C59.0927 69.6959 57.7627 70.9259 56.1927 70.8659C54.6227 70.8059 53.3927 69.4859 53.4527 67.9059C53.5127 66.3359 54.8327 65.1059 56.4127 65.1659C57.9927 65.2259 59.2127 66.5559 59.1527 68.1259Z" fill="#FC97CF"/>
<path d="M73.9827 71.2959C73.9227 72.8659 72.6027 74.0959 71.0227 74.0359C69.4527 73.9759 68.2227 72.6559 68.2827 71.0759C68.3427 69.5059 69.6627 68.2759 71.2427 68.3359C72.8227 68.3959 74.0427 69.7259 73.9827 71.2959Z" fill="#FC97CF"/>
<path d="M62.4827 71.1659C61.7727 70.8859 61.4927 70.4759 61.3627 70.1559C61.0327 69.3159 61.5227 68.4459 61.5827 68.3559L63.2727 65.1459C63.4127 64.8859 63.7327 64.7859 64.0027 64.9259C64.2627 65.0659 64.3627 65.3859 64.2227 65.6559L62.5227 68.8959C62.4327 69.0559 62.2527 69.4859 62.3727 69.7859C62.4527 69.9759 62.6627 70.1359 63.0027 70.2359C63.0127 70.2359 63.7427 70.3259 64.0127 69.6359C64.1227 69.3559 64.4327 69.2259 64.7127 69.3359C64.9927 69.4459 65.1227 69.7559 65.0227 70.0359C64.5427 71.2559 63.3327 71.3859 62.7627 71.2859C62.6627 71.2359 62.5727 71.1959 62.4827 71.1659Z" fill="#E40B79"/>
<path d="M71.3727 76.5359C71.3027 78.2959 67.8027 80.5859 63.8527 80.4259C59.9027 80.2759 57.0227 76.7459 57.0927 74.9859C57.1627 73.2259 60.4627 75.9159 64.4227 76.0659C68.3727 76.2159 71.4427 74.7759 71.3727 76.5359Z" fill="#E40B79"/>
<path d="M76.8327 69.2759C59.8027 59.4959 65.1827 47.3959 65.1827 47.3959C65.1827 47.3959 69.9227 37.7559 80.9827 44.2459C80.9827 44.2459 85.8627 46.6959 86.2227 52.3859C86.6527 59.2459 90.5827 57.7159 90.5827 57.7159C90.5827 57.7159 99.1527 55.8359 99.1227 62.6159C99.0827 73.2659 110.713 70.6059 110.713 70.6059C110.713 70.6059 120.703 66.2359 120.313 84.0759L113.723 105.406C113.723 105.406 110.073 94.0759 104.123 97.3359C96.5227 101.506 92.1927 100.296 91.0427 97.0259C89.1627 91.6959 87.1227 90.7259 81.3127 92.0859C75.5027 93.4459 72.4727 92.2359 71.3027 89.3159C71.3027 89.3159 66.9327 81.8659 73.5927 76.4759C73.5827 76.4559 80.9127 71.6159 76.8327 69.2759Z" fill="#0D2880"/>
<path d="M94.6127 210.316C101.813 142.036 125.873 131.786 126.483 128.996C131.973 103.866 95.3127 97.5259 82.4527 101.626C78.2227 102.976 73.1027 104.036 68.3527 103.966C59.9027 103.846 54.1227 101.896 54.1227 101.896C54.1227 101.896 8.76267 104.256 10.4827 126.616C10.4827 126.616 25.7827 193.656 24.2327 210.296L94.6127 210.316Z" fill="#F978C5"/>
<path d="M94.6127 210.316C94.6127 210.316 104.723 149.306 132.553 124.716L146.963 99.0659C146.963 99.0659 141.283 95.7159 130.983 99.9559C109.523 108.796 78.7027 102.506 78.7027 102.506" fill="#F978C5"/>
<path d="M24.2327 210.296C24.2327 210.296 26.9727 126.786 -36.6073 77.9059L-34.0973 73.2759C-34.0973 73.2759 9.14268 92.4859 29.0927 114.346C29.0927 114.346 64.2127 148.586 50.8827 195.246L24.2327 210.296Z" fill="#F978C5"/>
<path d="M54.0527 101.886C54.0527 101.886 25.4227 108.166 6.84268 95.3959L-3.27732 114.336L13.0827 130.926L54.0527 101.886Z" fill="#F978C5"/>
<path d="M130.383 100.286L135.443 121.876C135.443 121.876 161.463 91.5559 185.573 86.6859L180.863 81.9859C180.863 81.9959 142.633 92.1459 130.383 100.286Z" fill="#F978C5"/>
<path d="M6.84267 95.3959C6.84267 95.3959 -24.9573 76.5959 -34.2173 73.3359L-36.2273 78.2059C-36.2273 78.2059 -15.3373 94.7559 -3.28732 114.326L6.84267 95.3959Z" fill="#F978C5"/>
<path d="M126.943 101.346L132.553 124.726L137.163 120.666L130.913 99.8359L126.943 101.346Z" fill="#F978C5"/>
<path d="M5.67268 94.7059L-4.52732 112.376L-2.28732 115.916L8.64268 96.5459L5.67268 94.7059Z" fill="#F978C5"/>
<path d="M53.9927 101.956L50.9127 209.956L72.8327 210.486L81.1827 102.026L68.5527 103.936L53.9927 101.956Z" fill="#E6F8FC"/>
</g>
</svg>
