<svg width="64" height="71" viewBox="0 0 64 71" fill="none" xmlns="http://www.w3.org/2000/svg">
<mask id="mask0" mask-type="alpha" maskUnits="userSpaceOnUse" x="0" y="0" width="64" height="71">
<rect width="64" height="71" fill="#C4C4C4"/>
</mask>
<g mask="url(#mask0)">
<mask id="mask1" mask-type="alpha" maskUnits="userSpaceOnUse" x="-253" y="-42" width="317" height="278">
<rect x="-253" y="-42" width="317" height="278" fill="#C4C4C4"/>
</mask>
<g mask="url(#mask1)">
<path d="M21.58 164.39C21.58 126.1 -10.69 95.05 -50.5 95.05C-57.16 95.05 -63.6 95.94 -69.73 97.56C-86.31 70.37 -117 52.1 -152.15 52.1C-201.74 52.1 -242.5 88.46 -247.21 134.98C-247.99 137.9 -255.65 168.85 -240.68 201.43C-239.92 203.16 -239.07 204.86 -238.13 206.53C-237.18 208.31 -236.18 210.09 -235.09 211.87L-234.98 211.56C-216.4 238.43 -174.1 257.2 -124.88 257.2C-103.01 257.2 -82.5 253.49 -64.83 247.01C-43.35 244.77 -16.76 226.76 -7.58 220.1C-7.39 219.96 -7.19999 219.83 -7.00999 219.69C-5.25999 218.41 -4.26001 217.63 -4.26001 217.63L-4.29001 217.61C11.51 204.89 21.58 185.78 21.58 164.39Z" fill="#BFF1FF"/>
<path d="M32.11 54.37C44.4094 54.37 54.38 44.3994 54.38 32.1C54.38 19.8006 44.4094 9.83002 32.11 9.83002C19.8106 9.83002 9.84 19.8006 9.84 32.1C9.84 44.3994 19.8106 54.37 32.11 54.37Z" fill="#FFC600"/>
<path d="M29.87 33.89L33.18 35.24C34.04 35.59 34.45 36.58 34.1 37.44C33.75 38.3 32.76 38.71 31.9 38.36L30.25 37.68C29.28 37.28 28.18 37.75 27.79 38.71C27.4 39.68 27.86 40.78 28.82 41.17L30.39 41.81L30.4 44.15C30.4 45.19 31.25 46.03 32.3 46.03C33.34 46.03 34.18 45.18 34.18 44.13L34.17 42C35.67 41.53 36.96 40.42 37.6 38.86C38.74 36.07 37.4 32.88 34.61 31.74L31.3 30.39C30.89 30.22 30.56 29.9 30.39 29.48C30.21 29.06 30.21 28.61 30.38 28.19C30.55 27.78 30.87 27.45 31.29 27.28C31.71 27.1 32.16 27.1 32.58 27.27L34.23 27.95C35.2 28.34 36.3 27.88 36.69 26.92C37.08 25.96 36.62 24.85 35.66 24.46L34.09 23.82L34.08 21.48C34.08 20.44 33.23 19.6 32.18 19.6C31.13 19.6 30.3 20.45 30.3 21.5L30.31 23.63C30.15 23.68 29.99 23.74 29.83 23.81C28.48 24.38 27.44 25.43 26.89 26.77C26.34 28.12 26.35 29.6 26.91 30.95C27.47 32.3 28.52 33.34 29.87 33.89Z" fill="white"/>
<path d="M2.85001 51.84C2.85001 51.84 11.37 52.09 13.41 53.5C15.02 54.61 19.03 55.58 20.2 55.28C24.45 54.2 26.02 51.74 21.45 52.49C20.24 52.69 16.82 52.18 15.45 50.84C13.62 49.06 8.55999 47.16 10.33 44.44C13.86 39 10.3 38.18 9.79001 41.01C9.20001 44.29 1.42999 47.33 1.42999 47.33L2.85001 51.84Z" fill="#F7C1DF"/>
<path d="M-49.04 65.62L-43.98 87.21C-43.98 87.21 -17.96 56.89 6.15001 52.02L1.44002 47.32C1.44002 47.33 -36.79 57.48 -49.04 65.62Z" fill="#F978C5"/>
</g>
</g>
</svg>
