<svg width="317" height="278" viewBox="0 0 317 278" fill="none" xmlns="http://www.w3.org/2000/svg">
<mask id="mask0" mask-type="alpha" maskUnits="userSpaceOnUse" x="0" y="0" width="317" height="278">
<rect width="317" height="278" fill="#C4C4C4"/>
</mask>
<g mask="url(#mask0)">
<path d="M284.58 206.39C284.58 168.1 252.31 137.05 212.5 137.05C205.84 137.05 199.4 137.94 193.27 139.56C176.69 112.37 146 94.1 110.85 94.1C61.26 94.1 20.5 130.46 15.79 176.98C15.01 179.9 7.35 210.85 22.32 243.43C23.08 245.16 23.93 246.86 24.87 248.53C25.82 250.31 26.82 252.09 27.91 253.87L28.02 253.56C46.6 280.43 88.9 299.2 138.12 299.2C159.99 299.2 180.5 295.49 198.17 289.01C219.65 286.77 246.24 268.76 255.42 262.1C255.61 261.96 255.8 261.83 255.99 261.69C257.74 260.41 258.74 259.63 258.74 259.63L258.71 259.61C274.51 246.89 284.58 227.78 284.58 206.39Z" fill="#BFF1FF"/>
<path d="M110.9 25.47C108.6 25.47 106.72 23.6 106.72 21.3C106.72 19 108.59 17.13 110.9 17.13C113.2 17.13 115.07 19 115.07 21.3C115.07 23.59 113.2 25.47 110.9 25.47ZM110.9 18.93C109.6 18.93 108.53 19.99 108.53 21.3C108.53 22.6 109.59 23.67 110.9 23.67C112.2 23.67 113.26 22.61 113.26 21.3C113.26 19.99 112.2 18.93 110.9 18.93Z" fill="#E60278"/>
<path d="M79.08 48.51C77.54 48.51 76.29 47.26 76.29 45.72C76.29 44.18 77.54 42.93 79.08 42.93C80.62 42.93 81.87 44.18 81.87 45.72C81.87 47.26 80.62 48.51 79.08 48.51ZM79.08 44.14C78.21 44.14 77.5 44.85 77.5 45.72C77.5 46.59 78.21 47.3 79.08 47.3C79.95 47.3 80.66 46.59 80.66 45.72C80.66 44.85 79.95 44.14 79.08 44.14Z" fill="#E60278"/>
<path d="M220.68 93.53C218.38 93.53 216.51 91.66 216.51 89.36C216.51 87.06 218.38 85.19 220.68 85.19C222.98 85.19 224.85 87.06 224.85 89.36C224.86 91.66 222.99 93.53 220.68 93.53ZM220.68 86.99C219.38 86.99 218.31 88.05 218.31 89.36C218.31 90.66 219.37 91.73 220.68 91.73C221.98 91.73 223.04 90.67 223.04 89.36C223.05 88.05 221.99 86.99 220.68 86.99Z" fill="#080559"/>
<path d="M106.52 70.44C104.74 70.44 103.29 68.99 103.29 67.21C103.29 65.43 104.74 63.98 106.52 63.98C108.3 63.98 109.75 65.43 109.75 67.21C109.74 69 108.3 70.44 106.52 70.44ZM106.52 65.39C105.51 65.39 104.69 66.21 104.69 67.22C104.69 68.23 105.51 69.05 106.52 69.05C107.53 69.05 108.35 68.23 108.35 67.22C108.35 66.21 107.53 65.39 106.52 65.39Z" fill="#080559"/>
<path d="M261.89 32.12C260.35 32.12 259.1 30.87 259.1 29.33C259.1 27.79 260.35 26.54 261.89 26.54C263.43 26.54 264.68 27.79 264.68 29.33C264.68 30.87 263.43 32.12 261.89 32.12ZM261.89 27.75C261.02 27.75 260.31 28.46 260.31 29.33C260.31 30.2 261.02 30.91 261.89 30.91C262.76 30.91 263.47 30.2 263.47 29.33C263.47 28.46 262.76 27.75 261.89 27.75Z" fill="#E60278"/>
<path d="M174.03 21.37H171.29V18.63H169.59V21.37H166.85V23.07H169.59V25.82H171.29V23.07H174.03V21.37Z" fill="#080559"/>
<path d="M237.47 54.08H234.72V51.33H233.03V54.08H230.28V55.77H233.03V58.52H234.72V55.77H237.47V54.08Z" fill="#080559"/>
<path d="M312.14 27.08H309.39V24.33H307.7V27.08H304.95V28.77H307.7V31.52H309.39V28.77H312.14V27.08Z" fill="#E60278"/>
<path d="M27.41 3.08C27.41 4.78 26.03 6.16 24.33 6.16C22.63 6.16 21.25 4.78 21.25 3.08C21.25 1.38 22.63 0 24.33 0C26.04 0 27.41 1.38 27.41 3.08Z" fill="#080559"/>
<path d="M25.12 77.93C38.9934 77.93 50.24 66.6834 50.24 52.81C50.24 38.9366 38.9934 27.69 25.12 27.69C11.2466 27.69 0 38.9366 0 52.81C0 66.6834 11.2466 77.93 25.12 77.93Z" fill="#FFC600"/>
<path d="M22.59 54.83L26.32 56.36C27.29 56.76 27.76 57.87 27.36 58.84C26.96 59.81 25.85 60.28 24.88 59.88L23.01 59.12C21.92 58.67 20.68 59.2 20.23 60.29C19.79 61.38 20.31 62.62 21.4 63.07L23.17 63.79L23.18 66.43C23.19 67.61 24.14 68.56 25.32 68.55C26.5 68.54 27.45 67.59 27.44 66.41L27.43 64C29.12 63.47 30.57 62.22 31.29 60.46C32.58 57.32 31.06 53.71 27.92 52.43L24.19 50.9C23.72 50.71 23.36 50.35 23.16 49.88C22.96 49.41 22.96 48.89 23.15 48.43C23.34 47.96 23.7 47.6 24.17 47.4C24.64 47.2 25.16 47.2 25.62 47.39L27.48 48.15C28.57 48.6 29.81 48.07 30.26 46.98C30.71 45.89 30.18 44.65 29.09 44.2L27.32 43.47L27.31 40.83C27.3 39.65 26.35 38.7 25.17 38.71C23.99 38.72 23.04 39.67 23.05 40.85L23.06 43.26C22.88 43.32 22.7 43.38 22.52 43.46C21 44.1 19.82 45.29 19.2 46.8C18.58 48.32 18.59 49.99 19.23 51.51C19.88 53.02 21.07 54.2 22.59 54.83Z" fill="white"/>
<path d="M295.11 96.37C307.409 96.37 317.38 86.3994 317.38 74.1C317.38 61.8006 307.409 51.83 295.11 51.83C282.811 51.83 272.84 61.8006 272.84 74.1C272.84 86.3994 282.811 96.37 295.11 96.37Z" fill="#FFC600"/>
<path d="M292.87 75.89L296.18 77.24C297.04 77.59 297.45 78.58 297.1 79.44C296.75 80.3 295.76 80.71 294.9 80.36L293.25 79.68C292.28 79.28 291.18 79.75 290.79 80.71C290.4 81.68 290.86 82.78 291.82 83.17L293.39 83.81L293.4 86.15C293.4 87.19 294.25 88.03 295.3 88.03C296.34 88.03 297.18 87.18 297.18 86.13L297.17 84C298.67 83.53 299.96 82.42 300.6 80.86C301.74 78.07 300.4 74.88 297.61 73.74L294.3 72.39C293.89 72.22 293.56 71.9 293.39 71.48C293.21 71.06 293.21 70.61 293.38 70.19C293.55 69.78 293.87 69.45 294.29 69.28C294.71 69.1 295.16 69.1 295.58 69.27L297.23 69.95C298.2 70.34 299.3 69.88 299.69 68.92C300.08 67.96 299.62 66.85 298.66 66.46L297.09 65.82L297.08 63.48C297.08 62.44 296.23 61.6 295.18 61.6C294.13 61.6 293.3 62.45 293.3 63.5L293.31 65.63C293.15 65.68 292.99 65.74 292.83 65.81C291.48 66.38 290.44 67.43 289.89 68.77C289.34 70.12 289.35 71.6 289.91 72.95C290.47 74.3 291.52 75.34 292.87 75.89Z" fill="white"/>
<path d="M77.88 24.99C83.5851 24.99 88.21 20.3651 88.21 14.66C88.21 8.9549 83.5851 4.33 77.88 4.33C72.1749 4.33 67.55 8.9549 67.55 14.66C67.55 20.3651 72.1749 24.99 77.88 24.99Z" fill="#FFC600"/>
<path d="M76.84 15.49L78.37 16.12C78.77 16.28 78.96 16.74 78.8 17.14C78.64 17.54 78.18 17.73 77.78 17.57L77.01 17.26C76.56 17.08 76.05 17.29 75.87 17.74C75.69 18.19 75.9 18.7 76.35 18.88L77.08 19.18L77.09 20.26C77.09 20.74 77.49 21.13 77.97 21.13C78.45 21.13 78.84 20.73 78.84 20.25V19.26C79.54 19.04 80.13 18.53 80.43 17.8C80.96 16.51 80.34 15.02 79.04 14.5L77.51 13.87C77.32 13.79 77.17 13.64 77.09 13.45C77.01 13.26 77.01 13.04 77.09 12.85C77.17 12.66 77.32 12.51 77.51 12.43C77.7 12.35 77.92 12.35 78.11 12.43L78.88 12.74C79.33 12.92 79.84 12.71 80.02 12.26C80.2 11.81 79.99 11.3 79.54 11.12L78.81 10.82L78.8 9.74C78.8 9.26 78.4 8.87 77.92 8.87C77.44 8.87 77.05 9.27 77.05 9.75V10.74C76.97 10.76 76.9 10.79 76.83 10.82C76.2 11.08 75.72 11.57 75.46 12.2C75.2 12.82 75.21 13.51 75.47 14.14C75.72 14.75 76.21 15.23 76.84 15.49Z" fill="white"/>
<path d="M197.45 52.04C201.09 52.04 204.04 49.0896 204.04 45.45C204.04 41.8104 201.09 38.86 197.45 38.86C193.81 38.86 190.86 41.8104 190.86 45.45C190.86 49.0896 193.81 52.04 197.45 52.04Z" fill="#FFC600"/>
<path d="M196.79 45.98L197.77 46.38C198.02 46.48 198.15 46.78 198.04 47.03C197.94 47.28 197.64 47.41 197.39 47.3L196.9 47.1C196.61 46.98 196.29 47.12 196.17 47.41C196.05 47.7 196.19 48.02 196.48 48.14L196.95 48.33V49.02C196.95 49.33 197.2 49.58 197.51 49.58C197.82 49.58 198.07 49.33 198.07 49.02V48.39C198.59 48.23 199.02 47.81 199.16 47.22C199.35 46.43 198.86 45.62 198.11 45.31L197.22 44.95C197.1 44.9 197 44.8 196.95 44.68C196.9 44.56 196.9 44.42 196.95 44.3C197 44.18 197.1 44.08 197.22 44.03C197.34 43.98 197.48 43.98 197.6 44.03L198.09 44.23C198.38 44.35 198.7 44.21 198.82 43.92C198.94 43.63 198.8 43.31 198.51 43.19L198.04 43V42.31C198.04 42 197.79 41.75 197.48 41.75C197.17 41.75 196.92 42 196.92 42.31V42.94C196.87 42.96 196.82 42.97 196.78 42.99C196.38 43.16 196.07 43.47 195.91 43.87C195.75 44.27 195.75 44.71 195.92 45.11C196.08 45.51 196.39 45.82 196.79 45.98Z" fill="white"/>
<path d="M160.79 107.33C155.28 101.37 157.09 93.18 157.09 93.18C158.92 81.71 163.7 73.46 163.7 73.46C155.61 68.23 150.14 58.49 150.14 58.49C134.77 66.5 136.85 84.1 136.85 84.1C137.47 91.81 142.04 92.02 142.04 92.02C144.87 92.68 150.36 92.31 150.36 92.31C151.15 95.72 150.64 100.93 150.64 100.93C149.23 110.41 139.36 109.37 139.36 109.37C139.36 109.37 130.39 107.92 142.36 117.19C148.39 121.85 178.46 113.97 160.79 107.33Z" fill="#F7C1DF"/>
<path d="M142.73 75.46C142.67 77.03 141.34 78.26 139.77 78.2C138.2 78.14 136.97 76.82 137.03 75.24C137.09 73.67 138.41 72.44 139.99 72.5C141.57 72.56 142.79 73.89 142.73 75.46Z" fill="#FC97CF"/>
<path d="M157.56 78.63C157.5 80.2 156.18 81.43 154.6 81.37C153.03 81.31 151.8 79.99 151.86 78.41C151.92 76.84 153.24 75.61 154.82 75.67C156.4 75.73 157.62 77.06 157.56 78.63Z" fill="#FC97CF"/>
<path d="M146.06 78.5C145.35 78.22 145.07 77.81 144.94 77.49C144.61 76.65 145.1 75.78 145.16 75.69L146.85 72.48C146.99 72.22 147.31 72.12 147.58 72.26C147.84 72.4 147.94 72.72 147.8 72.99L146.1 76.23C146.01 76.39 145.83 76.82 145.95 77.12C146.03 77.31 146.24 77.47 146.58 77.57C146.59 77.57 147.32 77.66 147.59 76.97C147.7 76.69 148.01 76.56 148.29 76.67C148.57 76.78 148.7 77.09 148.6 77.37C148.12 78.59 146.91 78.72 146.34 78.62C146.24 78.57 146.15 78.53 146.06 78.5Z" fill="#E40B79"/>
<path d="M154.95 83.87C154.88 85.63 151.38 87.92 147.43 87.76C143.48 87.61 140.6 84.08 140.67 82.32C140.74 80.56 144.04 83.25 148 83.4C151.95 83.55 155.02 82.11 154.95 83.87Z" fill="#E40B79"/>
<path d="M160.41 76.61C143.38 66.83 148.76 54.73 148.76 54.73C148.76 54.73 153.5 45.09 164.56 51.58C164.56 51.58 169.44 54.03 169.8 59.72C170.23 66.58 174.16 65.05 174.16 65.05C174.16 65.05 182.73 63.17 182.7 69.95C182.66 80.6 194.29 77.94 194.29 77.94C194.29 77.94 204.28 73.57 203.89 91.41L197.3 112.74C197.3 112.74 193.65 101.41 187.7 104.67C180.1 108.84 175.77 107.63 174.62 104.36C172.74 99.03 170.7 98.06 164.89 99.42C159.08 100.78 156.05 99.57 154.88 96.65C154.88 96.65 150.51 89.2 157.17 83.81C157.16 83.79 164.49 78.95 160.41 76.61Z" fill="#0D2880"/>
<path d="M181.36 292.19C183.52 302.9 194.19 326.79 194.19 326.79L184.73 326.83C134.97 271.87 141.25 240.67 141.25 240.67C141.25 240.67 100.42 256.29 149.54 326.4L140.34 326.81C140.34 326.81 99.65 298.43 96.55 265.24C94.6 244.36 107.82 216.91 107.82 216.91L178.21 216.93C178.19 216.94 171.07 257.68 181.36 292.19Z" fill="#0D2880"/>
<path d="M178.19 217.65C185.39 149.37 209.45 139.12 210.06 136.33C215.55 111.2 178.89 104.86 166.03 108.96C161.8 110.31 156.68 111.37 151.93 111.3C143.48 111.18 137.7 109.23 137.7 109.23C137.7 109.23 92.34 111.59 94.06 133.95C94.06 133.95 109.36 200.99 107.81 217.63L178.19 217.65Z" fill="#F978C5"/>
<path d="M178.19 217.65C178.19 217.65 188.3 156.64 216.13 132.05L230.54 106.4C230.54 106.4 224.86 103.05 214.56 107.29C193.1 116.13 162.28 109.84 162.28 109.84" fill="#F978C5"/>
<path d="M107.81 217.63C107.81 217.63 110.55 134.12 46.97 85.24L49.48 80.61C49.48 80.61 92.72 99.82 112.67 121.68C112.67 121.68 147.79 155.92 134.46 202.58L107.81 217.63Z" fill="#F978C5"/>
<path d="M137.63 109.22C137.63 109.22 109 115.5 90.42 102.73L80.3 121.67L96.66 138.26L137.63 109.22Z" fill="#F978C5"/>
<path d="M265.85 93.84C265.85 93.84 274.37 94.09 276.41 95.5C278.02 96.61 282.03 97.58 283.2 97.28C287.45 96.2 289.02 93.74 284.45 94.49C283.24 94.69 279.82 94.18 278.45 92.84C276.62 91.06 271.56 89.16 273.33 86.44C276.86 81 273.3 80.18 272.79 83.01C272.2 86.29 264.43 89.33 264.43 89.33L265.85 93.84Z" fill="#F7C1DF"/>
<path d="M47.35 85.55C47.35 85.55 44.23 82.73 39.6 82.22C35.55 81.78 31.48 79.89 29.54 80.38C23.04 82.02 22.77 78.96 29.65 77.19C34.52 75.93 44.08 79.86 43.67 74.57C43.15 67.77 47.05 67.1 46.21 69.91C45.01 73.94 49.35 80.68 49.35 80.68L47.35 85.55Z" fill="#F7C1DF"/>
<path d="M213.96 107.62L219.02 129.21C219.02 129.21 245.04 98.89 269.15 94.02L264.44 89.32C264.44 89.33 226.21 99.48 213.96 107.62Z" fill="#F978C5"/>
<path d="M90.42 102.73C90.42 102.73 58.62 83.93 49.36 80.67L47.35 85.54C47.35 85.54 68.24 102.09 80.29 121.66L90.42 102.73Z" fill="#F978C5"/>
<path d="M210.52 108.68L216.13 132.06L220.74 128L214.49 107.17L210.52 108.68Z" fill="#F978C5"/>
<path d="M89.25 102.04L79.05 119.71L81.29 123.25L92.22 103.88L89.25 102.04Z" fill="#F978C5"/>
<path d="M137.57 109.29L134.49 217.29L156.41 217.82L164.76 109.36L152.13 111.27L137.57 109.29Z" fill="#E6F8FC"/>
</g>
</svg>
