<svg width="1440" height="392" viewBox="0 0 1440 392" fill="none" xmlns="http://www.w3.org/2000/svg">
<g clip-path="url(#clip0)">
<rect width="1440" height="392" fill="white"/>
<path d="M1763.13 -9.72237e-06L1118.7 131.976L1178.63 424.726L1823.06 292.75L1763.13 -9.72237e-06Z" fill="#D8527E"/>
<path d="M1620.89 262.67L1157.53 86.0439C1157.53 86.0439 901.785 -29.7877 783.099 156.843C664.413 343.475 645.281 453.58 645.281 453.58L869.514 546.652C869.514 546.652 916.379 395.367 963.739 354.607C1011.11 313.847 1120.81 357.874 1120.81 357.874L1523.12 516.042L1620.89 262.67Z" fill="#080559"/>
<path d="M212.498 438.181L865.669 360.351L830.327 63.6269L177.156 141.457L212.498 438.181Z" fill="#00AAB2"/>
<path d="M-107.154 380.352C-107.154 380.352 85.0888 188.893 294.164 361.787L457.835 191.01C457.835 191.01 100.185 -141.043 -288 207.944L-107.154 380.352Z" fill="#B41782"/>
</g>
<defs>
<clipPath id="clip0">
<rect width="1440" height="392" fill="white"/>
</clipPath>
</defs>
</svg>
