<?xml version="1.0" encoding="UTF-8"?>
<svg width="80px" height="18px" viewBox="0 0 80 18" version="1.1" xmlns="http://www.w3.org/2000/svg" xmlns:xlink="http://www.w3.org/1999/xlink">
    <!-- Generator: Sketch 63 (92445) - https://sketch.com -->
    <title>Combined Shape</title>
    <desc>Created with Sketch.</desc>
    <g id="clean---brand-refresh-(seekAnz)" stroke="none" stroke-width="1" fill="none" fill-rule="evenodd">
        <g id="Apply-Preview---MVP-R-empty1-Copy-7" transform="translate(-16.000000, -19.000000)" fill="#0D3880">
            <g id="Header">
                <g id="Group" transform="translate(16.000000, 8.000000)">
                    <path d="M19.175461,15.4817293 C22.7168635,15.4817293 25.5595988,18.2527137 25.5595988,21.8429649 C25.5595988,25.4332161 22.7168635,28.2042005 19.175461,28.2042005 C15.6338573,28.2042005 12.8150545,25.4332161 12.8150545,21.8429649 C12.8150545,18.2527137 15.6338573,15.4817293 19.175461,15.4817293 Z M29.6941445,11 L29.6941445,17.2407493 C30.5615458,16.1322348 31.8384136,15.4817293 33.5971486,15.4817293 C36.8252168,15.4817293 39.4754867,18.2527137 39.4754867,21.8429649 C39.4754867,25.4332161 36.8252168,28.2042005 33.5971486,28.2042005 C31.8384136,28.2042005 30.5615458,27.553695 29.6941445,26.4451806 L29.6941445,27.866879 L26.586342,27.866879 L26.586342,11 L29.6941445,11 Z M45.0654485,15.4818299 C47.01685,15.4818299 48.7033854,16.373308 49.6429863,18.035778 L46.9927164,19.4816139 C46.631316,18.7106221 45.9569834,18.2526132 45.0654485,18.2526132 C44.2945816,18.2526132 43.6681139,18.5901358 43.6681139,19.2406413 C43.6681139,21.0237987 49.8837189,19.9152842 49.8837189,24.3489397 C49.8837189,26.951364 47.6191841,28.2043011 45.0413149,28.2043011 C42.6321798,28.2043011 40.8493111,27.1921355 39.982111,25.3369678 L42.6804469,23.8187194 C43.0175127,24.8067475 43.8368479,25.3850417 45.0413149,25.3850417 C46.029183,25.3850417 46.7035156,25.0477202 46.7035156,24.3489397 C46.7035156,22.5899198 40.4879107,23.5536093 40.4879107,19.3128526 C40.4879107,16.8552534 42.5839126,15.4818299 45.0654485,15.4818299 Z M11.8568305,11.0039626 L11.8568305,22.6193273 C11.8568305,23.401181 11.7363637,24.1035821 11.5159436,24.7265306 C11.1392586,25.7877758 10.4651271,26.6185079 9.59108908,27.1978078 C9.5884746,27.2028364 9.58586013,27.2054513 9.58324566,27.2054513 C8.61448332,27.9412426 7.19281402,28.2001172 6.13214294,28.2001172 C3.3640207,28.2001172 1.03794529,26.988415 0.311725478,24.6599514 C0.0907020586,23.9515159 8.8817842e-16,23.0630549 8.8817842e-16,21.7385099 L3.36603183,21.742734 C3.34571939,23.1217895 3.52370459,24.1552766 4.56225321,24.7452372 C5.50185414,25.2794804 7.54013654,25.2491074 8.24664725,23.7306578 C8.6613427,22.8393808 8.55555715,21.3589478 8.55555715,20.3729311 L8.55555715,11.0039626 L11.8568305,11.0039626 Z M57.9792295,11 C62.628967,11 66.0981699,14.6863989 66.0981699,19.4334395 C66.0981699,24.180279 62.628967,27.866879 57.9792295,27.866879 L51.2817573,27.866879 L51.2817573,11 L57.9792295,11 Z M74.2421287,11.0000402 C77.084864,11.0000402 79.3737335,12.9276203 79.3737335,15.7466786 C79.3737335,17.1925145 78.7713994,18.3249653 77.7837324,19.1200946 C79.1327998,19.8910864 80,21.216436 80,22.9754559 C80,25.8669267 77.6632656,27.8669192 74.7481296,27.8669192 L67.5929237,27.8669192 L67.5929237,11.0000402 L74.2421287,11.0000402 Z M33.0189481,18.4454114 C31.1156127,18.4454114 29.6941445,19.8188348 29.6941445,21.8429649 C29.6941445,23.867095 31.1156127,25.2405184 33.0189481,25.2405184 C34.946216,25.2405184 36.3676842,23.867095 36.3676842,21.8429649 C36.3676842,19.8188348 34.946216,18.4454114 33.0189481,18.4454114 Z M19.175461,18.5178239 C17.3443252,18.5178239 15.922857,19.8910462 15.922857,21.8429649 C15.922857,23.7948837 17.3443252,25.168106 19.175461,25.168106 C21.0305292,25.168106 22.4517963,23.7948837 22.4517963,21.8429649 C22.4517963,19.8910462 21.0305292,18.5178239 19.175461,18.5178239 Z M74.7481296,20.7827657 L70.9175262,20.7827657 L70.9175262,24.7586134 L74.7481296,24.7586134 C75.880397,24.7586134 76.6995311,23.9152091 76.6995311,22.7586208 C76.6995311,21.6259688 75.880397,20.7827657 74.7481296,20.7827657 Z M57.9792295,14.1805172 L54.6063599,14.1805172 L54.6063599,24.6861606 L57.9792295,24.6861606 C60.8941644,24.6861606 62.9179667,22.5417454 62.9179667,19.4334395 C62.9179667,16.3249325 60.8941644,14.1805172 57.9792295,14.1805172 Z M74.2421287,14.108145 L70.9175262,14.108145 L70.9175262,17.8190836 L74.2421287,17.8190836 C75.2780629,17.8190836 76.049131,17.0237532 76.049131,15.9637149 C76.049131,14.9034754 75.3021965,14.108145 74.2421287,14.108145 Z" id="Combined-Shape"></path>
                </g>
            </g>
        </g>
    </g>
</svg>