<svg width="1440" height="1024" viewBox="0 0 1440 1024" fill="none" xmlns="http://www.w3.org/2000/svg">
<path d="M1837.9 -521.3L1678 -44.6C1678 -44.6 1503.3 -159.1 1230.6 -71.7001C1057.9 -16.4001 944.8 222.7 944.8 222.7L1491.9 441.6L1344.3 830.1L306.5 425C306.5 425 433.4 -93.7 749.7 -352.8C1235.2 -750.4 1837.9 -521.3 1837.9 -521.3Z" fill="#1C3080"/>
<path d="M214.9 597.5C214.9 597.5 106 1162.1 -466.5 1108.2L-550 1602.4C-550 1602.4 472.4 1758.3 737.2 684.2L214.9 597.5Z" fill="#D8527E"/>
<path d="M1990.69 635.859L1392.12 -568.41L971.327 -359.257L1569.9 845.011L1990.69 635.859Z" fill="#E60278"/>
<g clip-path="url(#clip0)">
<path d="M821.1 1000.8V968.5" stroke="white" stroke-width="9.7353" stroke-miterlimit="10"/>
<path d="M833.3 972L821.1 951L809 972H833.3Z" fill="white"/>
</g>
<defs>
<clipPath id="clip0">
<rect x="809" y="951" width="24.3" height="49.8" fill="white"/>
</clipPath>
</defs>
</svg>
