<svg width="592" height="436" viewBox="0 0 592 436" fill="none" xmlns="http://www.w3.org/2000/svg">
<path opacity="0.15" d="M179.92 88.7999C113.87 41.8999 64.25 83.9299 39.73 106.55C17.88 126.7 -12.67 172.91 5.57001 218.66C27.16 272.82 49.59 269.71 64.87 327.91C85.84 407.79 109.28 460.88 199.86 423.39C287.77 387.01 447.5 501.76 514.98 352.59C582.46 203.42 616.98 95.1199 455.51 10.9199C336.95 -50.9101 299.65 173.81 179.92 88.7999Z" fill="#3771C4"/>
<path d="M380.91 399.81C384.17 358.28 419.92 259.09 426.55 217.23C435.82 158.66 397.44 163.61 363.93 153.09C320.01 139.3 273.19 143.62 273.19 143.62C273.19 143.62 169.24 156.27 173.21 207.83C173.21 207.83 223.63 363.42 220.06 401.79L380.91 399.81Z" fill="#D63087"/>
<path d="M298.62 73.6099C297.98 97.0299 301.95 135.16 312.61 143.62L307.73 147.67C298.58 153.92 281.07 152.29 275.04 143.48C278.62 141.38 281.32 136.37 282.61 132.43C288.43 114.61 289.99 73.6199 289.99 73.6199" fill="#FEB9E1"/>
<path d="M48.3 220.17C48.3 220.17 48.45 209.09 39.97 207.55C35.2 206.68 31.31 205.64 28.81 205.12C26.3 204.6 23.91 203.59 21.84 202.06C19.99 200.69 19.24 199.44 24.61 200.41C33.72 202.05 48.86 200.3 50.64 204.37C52.85 209.42 57.15 219.32 57.15 219.32L48.3 220.17Z" fill="#FEB9E1"/>
<path d="M563.98 215.86C563.98 215.86 563.83 204.78 572.31 203.24C577.08 202.37 580.97 201.33 583.47 200.81C585.98 200.29 588.37 199.28 590.44 197.75C592.29 196.38 593.04 195.13 587.67 196.1C578.56 197.74 563.42 195.99 561.64 200.06C559.43 205.11 555.13 215.01 555.13 215.01L563.98 215.86Z" fill="#FEB9E1"/>
<path d="M275.05 143.47C275.05 143.47 291.95 160.76 312.62 143.61L318.82 144.13C318.82 144.13 313.54 158.19 292.98 157.9C273.13 157.62 268.28 144.03 268.28 144.03L275.05 143.47Z" fill="#D63087"/>
<path d="M279.66 17.5397C279.66 17.5397 254.11 47.9097 275.98 76.8897C275.98 76.8897 287.08 88.2397 292.8 89.4497C292.8 89.4497 320.43 81.8097 322.38 59.1797C326.83 7.60973 293.79 9.33973 279.66 17.5397Z" fill="#FEB9E1"/>
<path d="M292.78 48.0099L290.73 47.8899L290.28 55.8499C290.28 55.8499 290.42 58.7999 292.97 59.1299C295.52 59.4499 296.31 58.9599 296.96 58.2699C297.61 57.5799 297.56 57.2399 297.8 55.2199L296.07 55.1199C296.07 55.1199 296.13 57.3899 294.04 57.2099C292.16 57.0499 292.33 55.3699 292.37 54.7699L292.78 48.0099Z" fill="#E01EAA"/>
<path d="M315.03 33.4398L317.32 57.4598H323.39C323.39 57.4598 323.34 42.2398 323.39 30.3098L315.03 33.4398Z" fill="#3057E5"/>
<path d="M275.9 33.4398L272.75 57.4598H266.68C266.68 57.4598 266.73 42.2398 266.68 30.3098L275.9 33.4398Z" fill="#0D3880"/>
<path d="M317.32 57.4598H323.39C323.39 57.4598 323.34 42.2398 323.39 30.3098L315.03 33.4398" fill="#0D3880"/>
<path opacity="0.15" d="M275.9 33.4398L272.75 57.4598H266.68C266.68 57.4598 266.73 42.2398 266.68 30.3098L275.9 33.4398Z" fill="black"/>
<path opacity="0.15" d="M317.32 57.4598H323.39C323.39 57.4598 323.34 42.2398 323.39 30.3098L315.03 33.4398" fill="black"/>
<path d="M266.68 31.3298C266.68 31.3298 301.32 41.4598 323.39 30.3098C323.39 30.3098 325.69 13.7398 313.02 13.3998C295.68 12.9398 292.58 1.13985 282.53 1.44985C254.7 2.30985 266.68 31.3298 266.68 31.3298Z" fill="#3057E5"/>
<path d="M272.75 57.4599C272.75 57.4599 282.15 70.4799 286.17 68.1299C289.73 66.0399 297.93 66.2 302.33 67.82C306.73 69.44 315.47 64.4199 317.32 57.4599H323.39C323.39 57.4599 321.55 80.9599 294.61 89.5599C293.52 89.9099 292.33 89.8 291.34 89.23C286.13 86.28 269.54 75.58 266.69 57.45H272.75V57.4599Z" fill="#0D3880"/>
<path d="M266.68 31.3298C266.68 31.3298 301.32 41.4598 323.39 30.3098C323.39 30.3098 325.69 13.7398 313.02 13.3998C295.68 12.9398 292.58 1.13985 282.53 1.44985C254.7 2.30985 266.68 31.3298 266.68 31.3298Z" fill="#0D3880"/>
<path d="M295.27 71.5698C295.27 71.5698 290.45 71.4298 285.9 73.3798C281.35 75.3198 287.31 80.7198 288.98 81.9198C290.65 83.1198 298.04 83.6398 299.81 82.3798C301.58 81.1198 308.72 75.8598 304.23 73.6298C299.75 71.3998 297.66 71.6098 295.27 71.5698Z" fill="#FEB9E1"/>
<path d="M477.64 100.8C483.03 100.72 487.85 97.25 489.46 92.1C490.14 89.94 489.22 83.74 487.87 81.58C484.73 76.58 479.04 74.58 474.15 76.86C474.15 76.86 475.28 65.1 464.99 63.58C454.63 62.05 449.11 67.04 449.11 72.51C449.11 72.51 451.14 52.22 431.26 52.77C412.67 53.29 409.94 65.72 411.66 73.8C411.83 74.59 411.2 75.31 410.4 75.28C405.71 75.06 390.57 75.59 390 87.85C389.3 102.84 401.97 101.89 401.97 101.89L477.64 100.8Z" fill="#68D1EA"/>
<path d="M105.65 212.56C98.32 212.45 91.77 207.73 89.57 200.74C88.65 197.8 89.9 189.37 91.74 186.44C96.01 179.64 103.75 176.92 110.39 180.02C110.39 180.02 108.85 164.03 122.85 161.96C136.94 159.88 144.44 166.67 144.44 174.11C144.44 174.11 141.68 146.52 168.71 147.27C193.99 147.97 197.7 164.87 195.35 175.87C195.12 176.94 195.98 177.93 197.07 177.88C203.45 177.59 224.04 178.3 224.81 194.97C225.76 215.36 208.53 214.06 208.53 214.06L105.65 212.56Z" fill="#68D1EA"/>
<path d="M288.51 77.22H301.29" stroke="#E01EAA" stroke-width="1.4704" stroke-miterlimit="10" stroke-linecap="round"/>
<path d="M252.43 143.47C257.77 150.69 268.27 175.08 268.27 175.08C235.73 209.31 230.44 294.65 221.13 319.62C202.31 370.12 154.58 404.5 111.23 372.61C111.23 372.61 77.82 349.69 61.06 286.1C44.3 222.51 45.23 220.54 45.23 220.54L54 210.82L118.04 308.65C118.04 308.65 131.18 332.56 140.88 305.87C146.03 291.68 144.04 264.34 147.58 239.14C151.95 208.09 153.12 163.2 212.74 152.37L252.43 143.47Z" fill="#192182"/>
<path d="M330.35 144.18C317.63 160.52 388.49 176.61 378.5 215.15C366.65 260.87 380.99 293.93 390.3 318.91C409.12 369.41 456.85 403.79 500.2 371.9C500.2 371.9 533.61 348.98 550.37 285.39C567.13 221.8 566.2 219.83 566.2 219.83L557.43 210.11L493.39 307.94C493.39 307.94 480.25 331.85 470.55 305.16C465.4 290.97 460.61 262.68 457.06 237.48C452.85 207.56 435.62 165.09 396.43 152.06C393.77 151.18 391.02 150.62 388.23 150.32L330.35 144.18Z" fill="#192182"/>
<path d="M268.27 175.08C268.27 175.08 244.72 229.56 252.94 253.2C261.16 276.84 301.29 377.74 301.29 377.74C301.29 377.74 339.81 271.09 344.95 249C350.09 226.91 322.1 175.08 322.1 175.08L343.79 144.89L427.95 185.36L383.08 401.79H220.05C220.05 401.79 193.33 277.87 183.56 251.14C173.79 224.41 268.27 175.08 268.27 175.08Z" fill="#192182"/>
<path d="M246.58 144.89L268.27 175.08C268.27 175.08 282.75 167.71 271.96 157.09C268.7 153.88 259.28 139.45 259.28 139.45L246.58 144.89Z" fill="#3771C4"/>
<path d="M343.79 144.89L322.1 175.08C322.1 175.08 307.62 167.71 318.41 157.09C321.67 153.88 331.09 139.45 331.09 139.45L343.79 144.89Z" fill="#3771C4"/>
<path d="M246.58 144.89L268.27 175.08C268.27 175.08 282.75 167.71 271.96 157.09C268.7 153.88 259.28 139.45 259.28 139.45L246.58 144.89Z" fill="#4054B2"/>
<path d="M343.79 144.89L322.1 175.08C322.1 175.08 307.62 167.71 318.41 157.09C321.67 153.88 331.09 139.45 331.09 139.45L343.79 144.89Z" fill="#4054B2"/>
<path opacity="0.15" d="M200.84 355.27L186.41 261.2C186.41 261.2 196.02 369.93 175.15 377.14C175.15 377.14 192.94 367.4 200.84 355.27Z" fill="black"/>
<path opacity="0.15" d="M402.27 342.42L416.7 248.35C416.7 248.35 407.8 364.42 428.67 371.63C428.67 371.64 410.17 354.55 402.27 342.42Z" fill="black"/>
<path d="M45.25 220.54L47.08 230.4L57.31 215.86L54.01 210.82L45.25 220.54Z" fill="#4054B2"/>
<path d="M557.42 210.12L553.66 215.86L564.71 228.06L566.19 219.84L557.42 210.12Z" fill="#4054B2"/>
</svg>
