<svg width="657" height="473" viewBox="0 0 657 473" fill="none" xmlns="http://www.w3.org/2000/svg">
<g clip-path="url(#clip0)">
<path opacity="0.2" d="M462.56 465.08C421.88 458.77 402.91 445.96 362.88 457.99C300.45 476.75 158.2 495.71 81.92 380.7C-36.34 202.4 36.02 39.4 134.35 10.62C232.68 -18.16 291.05 15.45 339.01 64.77C369.01 95.62 540.42 -75.14 622.86 101.77C667.17 196.86 675.99 498.16 462.56 465.08Z" fill="#00AAB2"/>
<path d="M581.82 216.34H462.69C458.4 216.34 454.89 212.83 454.89 208.54V206.3C454.89 202.01 458.4 198.5 462.69 198.5H581.82C586.11 198.5 589.62 202.01 589.62 206.3V208.54C589.62 212.84 586.11 216.34 581.82 216.34Z" fill="white"/>
<path d="M510.11 249.57H447.12C442.76 249.57 439.19 246 439.19 241.64V239.37C439.19 235.01 442.76 231.44 447.12 231.44H510.11C514.47 231.44 518.04 235.01 518.04 239.37V241.64C518.04 246 514.47 249.57 510.11 249.57Z" fill="white"/>
<path d="M569.96 284.05H466.11C461.78 284.05 458.24 280.51 458.24 276.18V273.92C458.24 269.59 461.78 266.05 466.11 266.05H569.96C574.29 266.05 577.83 269.59 577.83 273.92V276.18C577.84 280.5 574.29 284.05 569.96 284.05Z" fill="white"/>
<path d="M225.15 387.73H106.02C101.73 387.73 98.22 384.22 98.22 379.93V377.69C98.22 373.4 101.73 369.89 106.02 369.89H225.15C229.44 369.89 232.95 373.4 232.95 377.69V379.93C232.95 384.23 229.44 387.73 225.15 387.73Z" fill="white"/>
<path d="M153.44 420.96H90.4499C86.0899 420.96 82.5199 417.39 82.5199 413.03V410.76C82.5199 406.4 86.0899 402.83 90.4499 402.83H153.44C157.8 402.83 161.37 406.4 161.37 410.76V413.03C161.37 417.39 157.8 420.96 153.44 420.96Z" fill="white"/>
<path d="M213.29 455.44H109.44C105.11 455.44 101.57 451.9 101.57 447.57V445.31C101.57 440.98 105.11 437.44 109.44 437.44H213.29C217.62 437.44 221.16 440.98 221.16 445.31V447.57C221.17 451.89 217.62 455.44 213.29 455.44Z" fill="white"/>
<path d="M468.16 266.74C468.16 266.74 482.23 242.21 517.28 195.89C566.28 131.14 620.68 77.6699 656.1 75.0599L653.85 68.6499C653.85 68.6499 559.84 80.5699 484.93 147.96C469.98 161.41 455.08 173.01 441.96 184.99L468.16 266.74Z" fill="#FEB9E1"/>
<path d="M29.91 60.7499C29.91 60.7499 24.5 59.5099 18.83 61.9099C13.87 64.0099 7.95996 64.4599 6.03996 66.2699C-0.400044 72.3499 -2.68004 68.9999 4.10996 62.5199C8.90996 57.9399 22.47 56.2999 18.59 50.4599C13.6 42.9499 17.67 39.6699 18.52 43.4499C19.74 48.8699 29.08 53.8399 29.08 53.8399L29.91 60.7499Z" fill="#FEB9E1"/>
<path d="M179.55 273.47C179.55 273.47 166.37 250.08 139.88 197.78C103.19 125.34 59.8399 68.6 25.5299 59.41L28.9499 53.53C28.9499 53.53 121.43 74.49 181.15 162.53C192.44 179.17 207.77 198.04 217.25 210.1L179.55 273.47Z" fill="#FEB9E1"/>
<path d="M468.16 266.74C422.11 331.07 391.79 451.11 391.79 451.11L240.49 450.89C240.49 450.89 210.88 323.55 179.54 273.47L217.23 210.11C248.66 242.5 315.14 225.95 315.14 225.95L345.84 225C345.84 225 369.42 234.07 389.02 222.81C408.64 211.54 429.41 193.45 441.96 184.98L468.16 266.74Z" fill="#00AAB2"/>
<path d="M315.15 225.95C322.97 217.91 328.8 198.02 328.78 167.99L340.48 163.12C340.48 163.12 337.15 213.18 345.84 225.01C337.39 229.03 327.74 229.76 318.78 227.06L315.15 225.95Z" fill="#FEB9E1"/>
<path d="M299.79 129.77C292.09 147.49 302.82 169.64 310.05 172.79C317.03 175.82 340.2 170.07 348.42 151.15C356.92 131.59 352.31 112.36 338.86 106.51C325.41 100.67 308.92 108.78 299.79 129.77Z" fill="#FEB9E1"/>
<path d="M327.82 123.43C327.82 123.43 302.87 119.17 291.55 104.23C291.55 104.23 296.59 105.16 304.48 104.02C304.57 104.01 301.42 100.05 302.15 100.29C309.31 102.69 322.16 98.2299 325.09 96.7499C343.39 87.4999 350.48 103.24 350.48 103.24C350.48 103.24 368.65 106.54 363.35 129.19C358.57 149.59 344.57 158.22 344.57 158.22C344.57 158.22 350.51 131.58 349.22 125.87C349.21 125.89 335.07 124.59 327.82 123.43Z" fill="#0D3880"/>
<path d="M217.24 210.11L228.26 218.81L186.77 285.79L179.55 273.47L217.24 210.11Z" fill="#192182"/>
<path d="M431.4 192.46L460.67 277.62L468.16 266.74L441.96 184.98L431.4 192.46Z" fill="#192182"/>
<path d="M315.15 225.95L295.05 229.23L298.71 256.61L329.88 228.37L315.15 225.95Z" fill="#192182"/>
<path d="M329.88 228.37L358.72 257.44L363.21 228.66L345.85 225L329.88 228.37Z" fill="#192182"/>
<path d="M320.21 137.09L318.43 136.32L315.51 143.04C315.51 143.04 314.7 145.64 316.86 146.75C319.02 147.87 319.89 147.7 320.68 147.32C321.48 146.94 321.54 146.62 322.39 144.97L320.88 144.31C320.88 144.31 320.21 146.29 318.41 145.44C316.79 144.68 317.47 143.29 317.7 142.78L320.21 137.09Z" fill="#E01EAA"/>
<path d="M309.65 154.71C309.65 154.71 317.58 158.98 324.61 157.57C331.63 156.16 331.7 158.43 330.39 160.68C329.08 162.93 323.75 167.63 315.64 165.09C307.52 162.55 303.58 152.4 309.65 154.71Z" stroke="#E01EAA" stroke-width="1.7915" stroke-miterlimit="10"/>
<path opacity="0.15" d="M594.19 110.02C594.19 110.02 431.42 239.81 395.33 321.39C364.85 390.29 360.33 420.95 360.33 420.95L240.5 450.89L391.8 451.11C391.8 451.11 427.01 264.83 594.19 110.02Z" fill="black"/>
<path d="M377.89 127.21L377.77 134.57C377.74 135.14 377.05 135.41 376.65 135L373.28 131.56L368.77 133.11C368.44 133.22 368.08 133.06 367.95 132.73L366.22 128.4L361.83 130.01C361.51 130.13 361.15 129.98 361.01 129.67L358.91 125.13L353 126.09C352.62 126.15 352.27 125.87 352.24 125.48L351.9 119.69L345.14 120.28C344.78 120.31 344.47 120.05 344.43 119.7L343.87 114.22L337.75 113.22C337.42 113.17 337.19 112.88 337.2 112.54L337.42 107.88L332.29 105.59C332.02 105.47 331.87 105.19 331.91 104.9L332.68 99.7201L327.27 97.3101C326.98 97.1801 326.82 96.8501 326.91 96.5401L328.29 91.4601L323.37 89.0701C323.12 88.8101 323.12 88.4001 323.38 88.1501L326.15 84.8601L322.87 79.8101C322.52 79.3101 322.99 78.6501 323.58 78.8101L329.01 80.2801L377.89 127.21Z" fill="#E41816"/>
<path d="M332.06 93.69C327 80.01 326.58 80.17 336.56 75.64L390.66 52.38C403.76 46.27 406.92 56.31 402.97 64.11L391.5 91.62C387.02 102.36 384.96 108.7 383.41 115.18C379.63 131.07 378.36 132.58 366.52 124.84C366.52 124.84 339.1 112.69 332.06 93.69Z" fill="#E41816"/>
<path d="M347.37 70.99C347.37 70.99 358.34 92.02 385.82 106.59" stroke="white" stroke-width="6.5687" stroke-miterlimit="10"/>
<path d="M364.37 62.98C364.37 62.98 369.69 77.51 391.5 91.62" stroke="white" stroke-width="6.5687" stroke-miterlimit="10"/>
<path d="M380.07 56.9299C380.07 56.9299 387.44 69.2299 397.73 76.2499" stroke="white" stroke-width="6.5687" stroke-miterlimit="10"/>
<path d="M402.72 52.18C402.72 52.18 402.38 41.7 404.62 44.26C404.97 44.66 406.01 45.5 405.77 47.67C405.73 47.99 405.97 47.82 406.2 47.59C407.56 46.27 411.13 44.33 411.93 46.44C412.44 47.78 409.97 50.6 409.52 50.99C408.9 51.52 413.12 52.28 412.19 53.44C410.99 54.94 404.08 53.48 404.08 53.48L402.72 52.18Z" fill="#E41816"/>
<path d="M334.12 76.76C334.12 76.76 351.71 106.48 381.34 121.48" stroke="white" stroke-width="6.5687" stroke-miterlimit="10"/>
</g>
<defs>
<clipPath id="clip0">
<rect width="656.11" height="472.1" fill="white"/>
</clipPath>
</defs>
</svg>
