<svg width="154" height="33" viewBox="0 0 154 33" fill="none" xmlns="http://www.w3.org/2000/svg">
<g clip-path="url(#clip0)">
<path d="M24.59 20.7849C24.59 13.8903 29.9862 8.59515 36.7798 8.59515C43.5735 8.59515 49.0202 13.9156 49.0202 20.7849C49.0202 27.6543 43.5735 32.9747 36.7798 32.9747C30.0115 32.9747 24.59 27.6796 24.59 20.7849ZM43.0852 20.7849C43.0852 17.0304 40.3492 14.3954 36.7967 14.3954C33.2694 14.3954 30.5587 17.0304 30.5587 20.7849C30.5587 24.5395 33.2946 27.1745 36.7967 27.1745C40.3492 27.1745 43.0852 24.5311 43.0852 20.7849Z" fill="white"/>
<path d="M75.7316 20.7849C75.7316 27.6796 70.6385 32.9747 64.451 32.9747C61.0837 32.9747 58.6255 31.7288 56.9755 29.6074V32.3434H51.0153V0H56.9755V11.9625C58.6508 9.83265 61.0837 8.59515 64.451 8.59515C70.6385 8.59515 75.7316 13.9156 75.7316 20.7849ZM69.7546 20.7849C69.7546 16.9041 67.0186 14.2691 63.3398 14.2691C59.6862 14.2691 56.9503 16.9041 56.9503 20.7849C56.9503 24.6658 59.6862 27.3008 63.3398 27.3008C67.0439 27.3008 69.7546 24.6658 69.7546 20.7849Z" fill="white"/>
<path d="M95.6832 25.6003C95.6832 30.5923 91.3477 33 86.4061 33C81.7929 33 78.375 31.0469 76.6997 27.5028L81.8686 24.59C82.5253 26.4926 84.0742 27.5786 86.4061 27.5786C88.3087 27.5786 89.5967 26.9219 89.5967 25.6003C89.5967 22.2329 77.6847 24.0765 77.6847 15.9444C77.6847 11.2301 81.7171 8.59515 86.4566 8.59515C90.2112 8.59515 93.427 10.2957 95.2286 13.4862L90.1355 16.2474C89.4536 14.7742 88.1571 13.8903 86.4314 13.8903C84.9582 13.8903 83.7459 14.5469 83.7459 15.7929C83.7712 19.2107 95.6832 17.0809 95.6832 25.6003Z" fill="white"/>
<path d="M126.781 16.1717C126.781 25.2719 120.139 32.3434 111.215 32.3434H98.3686V0H111.215C120.113 0 126.781 7.07143 126.781 16.1717ZM120.677 16.1717C120.677 10.2115 116.796 6.11173 111.198 6.11173H104.733V26.2653H111.198C116.796 26.2316 120.677 22.1235 120.677 16.1717Z" fill="white"/>
<path d="M153.45 22.9653C153.45 28.513 148.963 32.3434 143.39 32.3434H129.677V0H142.422C147.869 0 152.255 3.70408 152.255 9.10025C152.255 11.8615 151.093 14.0418 149.216 15.5656C151.775 17.0304 153.45 19.5895 153.45 22.9653ZM136.032 5.9602V13.0821H142.422C144.4 13.0821 145.89 11.5584 145.89 9.52959C145.89 7.50076 144.442 5.97704 142.422 5.97704H136.032V5.9602ZM147.111 22.536C147.111 20.3556 145.537 18.7561 143.356 18.7561H136.007V26.3832H143.356C145.537 26.3832 147.111 24.7668 147.111 22.536Z" fill="white"/>
<path d="M22.7633 -6.68356e-07V22.2834C22.7633 23.7819 22.536 25.1204 22.1066 26.3158C21.3742 28.3446 20.0778 29.9441 18.4026 31.0554C18.4026 31.0554 18.4025 31.0806 18.3773 31.0806C16.5253 32.5033 13.7893 32.9832 11.7605 32.9832C6.46531 32.9832 2.00357 30.6513 0.606122 26.1895C0.176786 24.8174 0 23.1168 0 20.5829H6.46531C6.4148 23.2179 6.76837 25.2214 8.74668 26.3327C10.5482 27.3429 14.4459 27.2924 15.8181 24.3796C16.601 22.6791 16.399 19.8421 16.399 17.9395C16.399 16.037 16.399 14.1597 16.399 12.2656C16.399 8.71301 16.399 5.16888 16.399 1.64158C16.399 1.56582 16.399 -0.00841904 16.399 -0.00841904C16.4242 -6.68356e-07 22.7633 -6.68356e-07 22.7633 -6.68356e-07Z" fill="white"/>
</g>
<defs>
<clipPath id="clip0">
<rect width="153.45" height="33" fill="white"/>
</clipPath>
</defs>
</svg>
